<?xml version="1.0" encoding="UTF-8"?>
<svg width="920px" height="202px" viewBox="0 0 920 202" version="1.1" xmlns="http://www.w3.org/2000/svg" xmlns:xlink="http://www.w3.org/1999/xlink">
    <!-- Generator: Sketch 40.1 (33804) - http://www.bohemiancoding.com/sketch -->
    <title>instafilter</title>
    <desc>Created with Sketch.</desc>
    <defs></defs>
    <g id="Page-1" stroke="none" stroke-width="1" fill="none" fill-rule="evenodd">
        <path d="M20.16,202 L0,202 L0,0.4 L20.16,0.4 L20.16,202 Z M119.52,0.4 L119.52,202 L99.36,202 L98.784,202 L59.04,68.944 L59.04,202 L38.88,202 L38.88,0.4 L59.04,0.4 L59.04,0.688 L99.36,133.744 L99.36,0.4 L119.52,0.4 Z M195.552,44.752 L195.552,23.152 C195.552,21.2319904 194.59201,20.272 192.672,20.272 L161.28,20.272 C159.35999,20.272 158.4,21.2319904 158.4,23.152 L158.4,77.872 C158.4,79.2160067 158.975994,80.0799981 160.128,80.464 L192.672,80.464 C199.200033,80.464 204.671978,82.7199774 209.088,87.232 C213.504022,91.7440226 215.712,97.1679683 215.712,103.504 L215.712,179.248 C215.712,185.008029 213.888018,189.999979 210.24,194.224 C206.591982,198.448021 201.984028,201.039995 196.416,202 L157.536,202 C151.967972,201.039995 147.360018,198.448021 143.712,194.224 C140.063982,189.999979 138.24,185.008029 138.24,179.248 L138.24,157.648 L158.4,157.648 L158.4,179.248 C158.4,181.16801 159.35999,182.128 161.28,182.128 L192.672,182.128 C194.59201,182.128 195.552,181.16801 195.552,179.248 L195.552,103.504 C195.552,102.159993 194.976006,101.296002 193.824,100.912 L161.28,100.912 C154.943968,100.912 149.520023,98.6560226 145.008,94.144 C140.495977,89.6319774 138.24,84.2080317 138.24,77.872 L138.24,23.152 C138.24,17.3919712 140.063982,12.4000211 143.712,8.176 C147.360018,3.95197888 151.967972,1.3600048 157.536,0.4 L196.416,0.4 C201.984028,1.3600048 206.591982,3.95197888 210.24,8.176 C213.888018,12.4000211 215.712,17.3919712 215.712,23.152 L215.712,44.752 L195.552,44.752 Z M311.04,20.56 L282.816,20.56 L282.816,202 L262.656,202 L262.656,20.56 L234.432,20.56 L234.432,0.4 L311.04,0.4 L311.04,20.56 Z M372.96,41.008 L358.272,134.032 L372.96,134.032 L372.96,154.192 L355.104,154.192 L347.328,202 L326.88,202 L334.656,154.192 L326.88,154.192 L326.88,134.032 L337.824,134.032 L359.136,0.4 L386.784,0.4 L419.04,202 L398.592,202 L372.96,41.008 Z M450.432,20.56 L450.432,81.04 L492.48,81.04 L492.48,101.2 L450.432,101.2 L450.432,202 L430.272,202 L430.272,81.04 L450.432,81.04 L430.272,20.56 L430.272,0.4 L502.848,0.4 L502.848,20.56 L450.432,20.56 Z M541.728,202 L521.568,202 L521.568,0.4 L541.728,0.4 L541.728,202 Z M633.024,181.552 L633.024,202 L560.448,202 L560.448,181.552 L560.448,0.4 L580.608,0.4 L580.608,181.552 L633.024,181.552 Z M728.64,20.56 L700.416,20.56 L700.416,202 L680.256,202 L680.256,20.56 L652.032,20.56 L652.032,0.4 L728.64,0.4 L728.64,20.56 Z M767.52,20.56 L767.52,81.04 L809.568,81.04 L809.568,101.2 L767.52,101.2 L767.52,181.84 L819.936,181.84 L819.936,202 L747.36,202 L747.36,81.04 L767.52,81.04 L747.36,20.56 L747.36,0.4 L819.936,0.4 L819.936,20.56 L767.52,20.56 Z M838.656,81.04 L858.816,81.04 L858.816,202 L838.656,202 L838.656,81.04 Z M896.832,0.4 C902.976031,0.4 908.303977,2.65597744 912.816,7.168 C917.328023,11.6800226 919.584,17.1039683 919.584,23.44 L919.584,78.16 C919.584,84.4960317 917.328023,89.9199774 912.816,94.432 C908.303977,98.9440226 902.976031,101.2 896.832,101.2 L889.632,101.2 L919.584,202 L897.984,202 L863.136,81.04 L896.832,81.04 C898.560009,81.04 899.424,80.0800096 899.424,78.16 L899.424,23.44 C899.424,21.5199904 898.560009,20.56 896.832,20.56 L858.816,20.56 L858.816,81.04 L838.656,20.56 L838.656,0.4 L896.832,0.4 Z" id="instafilter" fill="#4A4A4A"></path>
    </g>
</svg>